PathFileType	4	(X/Y/Z)	Patient4_TMGait_0pt7_02_right_26.trc.trc
DataRate	CameraRate	NumFrames	NumMarkers	Units	OrigDataRate	OrigDataStartFrame	OrigNumFrames
85.365853658537	85.365853658537	6	33	mm	85.365853658537	124	       141
Frame#	Time	Sacral			L.Shoulder			Chest			R.Shoulder			Neck			R.ASIS			L.ASIS			R.Thigh.Superior			R.Thigh.Lateral			R.Thigh.Inferior			R.Patella			L.Thigh.Superior			L.Thigh.Lateral			L.Thigh.Inferior			L.Patella			L.Shank.Superior			L.Shank.Lateral			L.Shank.Inferior			R.Shank.Superior			R.Shank.Lateral			R.Shank.Inferior			R.Heel			R.Midfoot.Superior			R.Midfoot.Lateral			R.Toe			L.Heel			L.Midfoot.Lateral			L.Midfoot.Superior			L.Toe			L.Elbow			L.Wrist			R.Elbow			R.Wrist			
		X1	Y1	Z1	X2	Y2	Z2	X3	Y3	Z3	X4	Y4	Z4	X5	Y5	Z5	X6	Y6	Z6	X7	Y7	Z7	X8	Y8	Z8	X9	Y9	Z9	X10	Y10	Z10	X11	Y11	Z11	X12	Y12	Z12	X13	Y13	Z13	X14	Y14	Z14	X15	Y15	Z15	X16	Y16	Z16	X17	Y17	Z17	X18	Y18	Z18	X19	Y19	Z19	X20	Y20	Z20	X21	Y21	Z21	X22	Y22	Z22	X23	Y23	Z23	X24	Y24	Z24	X25	Y25	Z25	X26	Y26	Z26	X27	Y27	Z27	X28	Y28	Z28	X29	Y29	Z29	X30	Y30	Z30	X31	Y31	Z31	X32	Y32	Z32	X33	Y33	Z33	

124	30.470857142857	856.056960418285	995.619664756970	457.340661354797	1064.728813752930	1419.576164280569	286.775285935723	1153.110790311446	1342.004914848903	453.066861300765	1062.772440442833	1422.398424094467	619.427788883383	1059.062370652801	1477.650169059365	438.997164143770	1071.816751860005	926.476961235844	591.260259700363	1077.674885346785	944.361668603759	315.834538197364	1146.883350338660	753.634248256806	564.471524478730	1094.069339580282	630.700267207541	630.196113773945	1185.686359296041	596.306751249136	553.513904948412	1211.863727231211	512.635080031152	566.085426996338	1077.943353115528	717.629012235265	341.565668186433	963.429089056120	626.438006407325	270.745235024888	1018.910142939736	529.412770802761	335.135626887967	1002.565921494325	459.600248127811	341.743681304394	961.490515033249	395.728439072401	330.202172383711	851.803006424465	304.492320040363	271.468522524499	871.352198495626	183.628269816025	340.508623347833	1198.710755418523	421.474268730410	576.752405918010	1144.355638699948	306.899576133308	637.006311233077	1213.981508021275	221.907868601765	584.438997713845	1118.951287230948	41.661726621833	551.725458509957	1282.573084710101	108.918295269195	594.015131444902	1201.403589924468	38.311353372577	626.443343315389	1405.467043130116	68.045017295064	622.513629039447	718.394523385128	40.856631508017	371.066955675558	794.517999100037	35.546741677580	293.175496468712	878.793673291074	95.046507497047	322.813054452937	1007.158231647418	39.911238586473	296.313655213524	1171.777256876695	1124.119700146738	123.001232117758	1402.095820451442	1185.848620919684	205.050944035728	887.664866656606	1130.395028657894	733.575301285818	824.817065556312	875.610459118343	735.703355914118	
125	30.482571428571	857.026124173388	993.943523564211	461.526993599590	1064.147064720763	1418.126845023107	289.896841944948	1153.625127868625	1340.856851188524	455.775475211449	1063.949986433482	1421.106645992492	622.650192815692	1059.184187386997	1476.325797286304	442.177199394194	1073.847838968263	924.540669278617	594.150958382201	1078.018353582528	943.009781009729	318.993434289384	1148.922865850498	751.344178505815	567.248782246796	1094.430356779108	628.729285624810	631.458640841715	1186.155904060893	594.336380288695	555.076660586624	1210.763661173066	509.931004820371	566.502520364407	1079.223908005699	716.287728041003	343.600238236225	964.595702900450	624.636999380209	273.583185385552	1021.511458789649	527.397946046869	336.951770369654	1005.405862565272	456.390133849238	342.930529627408	961.775002115243	393.345691897374	331.729104757140	849.422578502270	305.359603359538	272.948875633028	866.310207961305	183.544168539056	340.852763762951	1197.237938932945	418.565203355957	576.868861035317	1142.078721278999	304.392870309261	637.035390509570	1210.022053548641	218.889420573548	583.514231501897	1111.645499124272	41.558924074808	550.592319897916	1276.786151229229	105.135948060028	592.376685877335	1193.859908873507	37.271311445798	625.668308747838	1398.913595144354	61.721360500834	621.227296304587	710.428931061434	43.652682871948	370.689697348222	786.497634569282	36.889736087297	293.021859678503	871.622088454598	95.269599651363	322.541316600018	998.931266641509	39.462911653898	296.242270635919	1171.301085362580	1122.714064650935	125.970464897751	1400.481000377710	1186.971413016796	208.969947068053	887.327894236198	1130.099489006789	735.834747108255	821.164544680130	875.971280921133	737.369036205166	
126	30.494285714286	857.724859136217	992.689230231161	465.726099191889	1063.702512310812	1416.956308892690	293.063885732459	1154.216808194947	1339.908288958879	458.546471760446	1065.278789495089	1420.046186402120	625.968862789067	1059.511619120328	1475.321713708489	445.468631318006	1075.669126837430	923.037901119154	597.107438421573	1078.089171996006	941.938379444589	322.127330668896	1150.894370306520	749.692303516122	570.012982999775	1095.036509683835	627.485553655973	632.881241287064	1186.735639708621	593.015447813901	556.673209685210	1210.017066244740	507.804068742622	567.086659195585	1080.993365440718	715.413188882270	345.824786936638	966.777428790605	622.823511017900	276.583567652376	1025.577715488397	525.574799570038	338.957940788569	1009.837136169399	453.203685953783	344.169787037754	963.392654242959	391.052741303454	333.359469036618	848.194017791299	306.801221474551	274.567788111020	862.090213918234	184.038941515511	341.259363304009	1195.846423422480	416.222766712488	577.099541731957	1139.767746361171	302.607498172407	637.433127768417	1205.594811340805	216.373022797278	582.779847947349	1103.436608652362	41.738569503552	549.901604830780	1270.146984803363	101.979778735805	591.011377614877	1185.529177681569	36.630025145271	625.234489680675	1391.543963411875	56.159732271538	620.050082875617	702.800255398588	47.968826590882	370.339023614555	778.674513685968	39.211506185507	292.905878072967	864.950004988137	95.837256493601	322.275793310468	990.618898312731	38.825931786649	296.265141891243	1169.718018503307	1120.818083369583	129.144863519814	1398.338673479942	1186.462160525525	212.725856068772	888.361033313796	1129.011842055400	738.193024004170	819.472358869456	875.439339248869	738.901682384218	
127	30.506000000000	858.133222504309	991.924477893428	469.900962139795	1063.398144508567	1416.138444648264	296.245880084031	1154.863366962050	1339.203579257008	461.338783997095	1066.755808982809	1419.276188924975	629.326816066347	1060.047302879859	1474.688965011833	448.827160472296	1077.224080709730	922.044929018820	600.098811331485	1077.832060307407	941.212572067735	325.166731116874	1152.627523668270	748.702379444523	572.730599646431	1095.732533859950	626.961386360121	634.519182299757	1187.227916557356	592.289910574537	558.341985678498	1209.407344196192	506.260405759801	567.955055206849	1083.205989004266	715.100652054217	348.230333640219	970.022448316962	621.081126958527	279.678627113495	1031.137207871182	524.065655459165	341.121687558277	1015.867894024890	450.190826008934	345.434399486296	966.421789729787	388.976361647578	335.054677790654	848.236263153236	308.934897054081	276.311930668009	858.826418037892	185.273424246926	341.755566529840	1194.389758516281	414.467450404133	577.558881341188	1137.330912533829	301.498697347308	638.222771821686	1200.796594478590	214.408298100727	582.331712677622	1094.756620436668	42.063937900626	549.616304750886	1262.932814735889	99.596486826750	590.029607994638	1176.815583486513	36.313335033233	625.123095444014	1383.674085958758	51.683676504463	619.114038058490	695.668927237746	54.068094893766	370.091809005514	771.157145699790	42.762474255670	292.878234453646	858.894961873250	96.880894325169	322.068779922786	982.234131145582	37.988259623944	296.405243843407	1166.987301979605	1118.503273611366	132.538838129301	1395.701516748521	1184.277842376959	216.290468770508	890.708811441855	1127.235317163063	740.655109636386	819.804564182524	874.073085974527	740.343942037717	
128	30.517714285714	858.255588927833	991.674893029829	474.031965337555	1063.206155606854	1415.721479480521	299.414114322238	1155.528764039116	1338.770065742301	464.105759315018	1068.364715348888	1418.834434576140	632.664091343270	1060.760983258409	1474.448058086012	452.202900076635	1078.478081507123	921.593582329368	603.090403521099	1077.213089050287	940.870255826182	328.053697817047	1153.971530649733	748.325386967776	575.388402199929	1096.306033010237	627.062346123056	636.390987089942	1187.425409485366	592.037411828998	560.126145055041	1208.671374354851	505.228389311051	569.186117872584	1085.797275225657	715.417223828188	350.793706295460	974.338121715730	619.500701898587	282.788880837645	1038.150923990917	522.992874626355	343.392878009413	1023.438934561385	447.508390766670	346.695485735400	970.891378400767	387.241887994618	336.774181970003	849.632251811488	311.845766612813	278.167526659546	856.633116533405	187.378594498349	342.374414812001	1192.675146214471	413.247576806806	578.321634772444	1134.607152355523	300.954596772892	639.368562149982	1195.664008204259	212.976814308830	582.222243275454	1085.924020626374	42.427762378107	549.665420537754	1255.357558497758	98.022360540067	589.474817467782	1168.008364742246	36.232481343041	625.282375319031	1375.539365626052	48.413571844368	618.489656184811	689.223437676438	62.115699931789	370.041371453017	764.086885331208	47.753303062610	292.998667896467	853.575607865019	98.537287946070	321.983814425463	973.834009625974	36.968747640440	296.668229527333	1163.089049457537	1115.871180210944	136.165072198755	1392.581202955387	1180.374336534666	219.641035992346	894.271358741463	1124.911937451262	743.220703274708	822.201852411158	871.967720633021	741.755047895140	
129	30.529428571429	858.112722752439	991.923431656222	478.116182878665	1063.065468655945	1415.721531293153	302.543178473646	1156.166410700772	1338.616611124277	466.798780279429	1070.075968219444	1418.732011080258	635.925711901110	1061.591319154353	1474.588023303937	455.546153587059	1079.418273482975	921.668156594203	606.041103387843	1076.220499491041	940.917297854644	330.747942247291	1154.807497355692	748.436727544358	578.000014628269	1096.503554769843	627.625203636640	638.477901258227	1187.125500883573	592.091688297715	562.060659911583	1207.536899967726	504.584718481547	570.794573853398	1088.688876004068	716.398326276799	353.477709270788	979.681294830654	618.177500011944	285.830745523945	1046.505534334652	522.472930362182	345.707206447996	1032.423551028418	445.311996984420	347.926567100296	976.772599264882	385.966452423609	338.480405643086	852.418743819730	315.576608746031	280.122121356412	855.597201535293	190.439980998493	343.150498774148	1190.497766416592	412.462214385126	579.408062980983	1131.413297145380	300.823638523076	640.788259588678	1190.194103493778	212.008611975575	582.454543051118	1077.142851079183	42.755544889536	549.960680025150	1247.570283098097	97.195194311054	589.325583060475	1159.285124121734	36.299221559948	625.641503547319	1367.298444843096	46.296143931825	618.188377404309	683.674815064282	72.142281119391	370.289916232312	757.638979141211	54.321641051641	293.330378442215	849.110770604259	100.936850245126	322.086117683569	965.536149468237	35.828424051513	297.033114855658	1158.028131764186	1113.042376924974	140.032441445756	1388.957529349283	1174.708818801443	222.760208587697	898.913445809445	1122.204431660610	745.888732016220	826.681211472094	869.245065235409	743.202081349360	
